<?xml version="1.0" encoding="utf-8"?>
<!-- Generator: Adobe Illustrator 24.1.3, SVG Export Plug-In . SVG Version: 6.00 Build 0)  -->
<svg version="1.1" id="Layer_2" xmlns="http://www.w3.org/2000/svg" xmlns:xlink="http://www.w3.org/1999/xlink" x="0px" y="0px"
	 viewBox="0 0 1024 1024" style="enable-background:new 0 0 1024 1024;" xml:space="preserve">
<g>
	<path d="M174.49,1024h675.03c55.59,0,100.82-45.23,100.82-100.82V100.82C950.34,45.23,905.11,0,849.52,0H174.49
		C118.89,0,73.66,45.23,73.66,100.82v822.36C73.66,978.77,118.89,1024,174.49,1024z M148.8,100.82c0-14.17,11.52-25.69,25.69-25.69
		h675.03c14.16,0,25.68,11.52,25.68,25.69v822.36c0,14.16-11.52,25.68-25.68,25.68H174.49c-14.17,0-25.69-11.52-25.69-25.68V100.82z
		"/>
	<rect x="234.53" y="165.16" width="554.94" height="75.13"/>
	<rect x="429.23" y="319.8" width="360.24" height="75.13"/>
	<rect x="234.53" y="474.43" width="554.94" height="75.13"/>
	<rect x="429.23" y="629.07" width="360.24" height="75.13"/>
	<rect x="234.53" y="783.71" width="554.94" height="75.13"/>
</g>
</svg>
